<?xml version="1.0" standalone="no"?>
<!DOCTYPE svg PUBLIC "-//W3C//DTD SVG 20010904//EN"
 "http://www.w3.org/TR/2001/REC-SVG-20010904/DTD/svg10.dtd">
<svg version="1.0"
  xmlns="http://www.w3.org/2000/svg"
  viewBox="0 0 16 16"
 preserveAspectRatio="xMidYMid meet">
  <g stroke="none">
    <path id="dinify-logo" d="M8,14.9l-0.7-0.7c-0.6-0.6-1.4-0.9-2.3-0.9H0.7L0,2.7h4.4c1.2,0,2.3,0.3,3.3,1L8,3.9l0.3-0.2c1-0.7,2.1-1,3.3-1H16
	l-0.7,10.7H11c-0.9,0-1.7,0.3-2.3,1L8,14.9z M1.9,12H5c1.1,0,2.1,0.4,3,1.1c0.9-0.7,1.9-1.1,3-1.1h3.1l0.5-8h-2.9
	c-0.9,0-1.8,0.3-2.6,0.8l-1,0.7l-1-0.7C6.2,4.3,5.3,4,4.4,4h-3L1.9,12z"/>
  </g>
</svg>
